<?xml version="1.0" ?><svg id="Layer_1" style="enable-background:new 0 0 24 24;" version="1.1" viewBox="0 0 24 24" xml:space="preserve" xmlns="http://www.w3.org/2000/svg" xmlns:xlink="http://www.w3.org/1999/xlink"><path d="M14.92,5.846C14.119,5.95,13.164,6,12,6c-1.164,0-2.119-0.05-2.92-0.154  C8.81,5.813,8.551,6.07,8.513,6.342C8.51,6.365,8.5,6.477,8.5,6.5c0,1.93,1.57,3.5,3.5,3.5c1.93,0,3.5-1.57,3.5-3.5  c0-0.054-0.006-0.106-0.017-0.186c-0.007-0.139-0.072-0.268-0.18-0.357C15.197,5.869,15.059,5.83,14.92,5.846z M12,5  c2.281,0,5-0.217,5-1.25c0-0.547-0.586-0.866-2-1.065V2c0-1.103-0.898-2-2-2h-2C9.897,0,9,0.897,9,2v0.685  C7.586,2.884,7,3.203,7,3.75C7,4.783,9.719,5,12,5z M20.332,10.748l0.469-0.351C20.926,10.302,21,10.154,21,9.997  s-0.074-0.305-0.2-0.4l-0.466-0.348L20.8,8.9c0.172-0.129,0.242-0.354,0.175-0.558C20.906,8.138,20.715,8,20.5,8h-3.924  c-0.198,0-0.378,0.117-0.458,0.299C15.398,9.94,13.782,11,12,11c-1.782,0-3.398-1.06-4.118-2.701C7.802,8.117,7.622,8,7.424,8H3.5  C3.285,8,3.094,8.138,3.025,8.342C2.958,8.546,3.027,8.771,3.199,8.9l0.469,0.352L3.199,9.603C3.074,9.698,3,9.846,3,10.003  s0.074,0.305,0.2,0.4l0.466,0.348L3.2,11.1c-0.172,0.129-0.242,0.354-0.175,0.558C3.094,11.862,3.285,12,3.5,12h3.441l-0.938,8.445  c-0.022,0.197,0.074,0.388,0.245,0.487C6.326,20.978,6.413,21,6.5,21c0.103,0,0.206-0.032,0.294-0.095l1.085-0.787l1.084,0.787  c0.176,0.127,0.412,0.127,0.588,0l1.082-0.786L11,20.386V23.5c0,0.276,0.224,0.5,0.5,0.5h1c0.276,0,0.5-0.224,0.5-0.5v-3.105  l0.381-0.277l1.08,0.786c0.176,0.128,0.413,0.127,0.589-0.001l1.076-0.785l1.08,0.786C17.293,20.968,17.396,21,17.5,21  c0.007,0,0.015,0,0.019,0c0.276,0,0.5-0.224,0.5-0.5c0-0.068-0.013-0.133-0.038-0.192L17.059,12H20.5  c0.215,0,0.406-0.138,0.475-0.342c0.067-0.204-0.002-0.429-0.174-0.558L20.332,10.748z M10.865,14.386  c-0.07,0.208-0.265,0.34-0.474,0.34c-0.05,0-0.101-0.009-0.151-0.025l-0.317,0.953c0.253,0.094,0.388,0.37,0.301,0.627  c-0.07,0.208-0.265,0.34-0.474,0.34c-0.047,0-0.094-0.009-0.141-0.023L9.39,17.26c-0.07,0.209-0.265,0.342-0.475,0.342  c-0.052,0-0.105-0.008-0.158-0.025c-0.262-0.087-0.403-0.37-0.316-0.632l0.221-0.664l-0.018-0.006  c-0.262-0.088-0.402-0.372-0.313-0.634c0.089-0.261,0.373-0.403,0.634-0.313l0.013,0.004l0.316-0.949l-0.008-0.003  c-0.262-0.088-0.402-0.372-0.314-0.634c0.088-0.261,0.374-0.401,0.634-0.313l0.003,0.001l0.157-0.472  c0.087-0.262,0.366-0.404,0.633-0.317c0.262,0.087,0.403,0.37,0.316,0.632l-0.159,0.478C10.814,13.844,10.954,14.126,10.865,14.386z  " id="XMLID_137_" style="fill:#303C42;"/><g/><g/><g/><g/><g/><g/><g/><g/><g/><g/><g/><g/><g/><g/><g/></svg>